<svg id="Capa_1" enable-background="new 0 0 511.819 511.819" height="512" viewBox="0 0 511.819 511.819" width="512" xmlns="http://www.w3.org/2000/svg"><g><path d="m504.319 201.814h-310.622c-4.142 0-7.5 3.357-7.5 7.5v23.563h-77.465c-4.142 0-7.5 3.357-7.5 7.5s3.358 7.5 7.5 7.5h46.4v62.66h-33.11c-43.921 0-83.24-24.252-103.042-62.66h57.072c4.142 0 7.5-3.357 7.5-7.5s-3.358-7.5-7.5-7.5h-68.731c-5.96.965-8.281 4.393-6.963 10.285 19.694 49.237 68.634 82.375 121.664 82.375h33.113v8.026c0 4.143 3.358 7.5 7.5 7.5h26.927c14.205 23.873 14.205 54.313 0 78.187h-11.397c-21.263 0-38.562 17.299-38.562 38.563 0 4.143 3.358 7.5 7.5 7.5h279.561c4.143 0 7.5-3.357 7.5-7.5 0-21.264-17.299-38.563-38.563-38.563h-11.394c-14.206-23.856-14.207-54.326-.002-78.183h89.056c4.143 0 7.5-3.357 7.5-7.5v-85.69h23.558c4.143 0 7.5-3.357 7.5-7.5v-31.063c0-4.142-3.357-7.5-7.5-7.5zm-318.122 124.249h-16.062v-78.187h16.062zm209.404 108.187c10.371 0 19.199 6.735 22.339 16.063h-262.113c3.139-9.327 11.967-16.063 22.338-16.063zm70.161-108.183h-152.54c-4.143 0-7.5 3.357-7.5 7.5s3.357 7.5 7.5 7.5h54.004c-11.613 24.526-11.614 53.654.001 78.18h-160.685c11.615-24.535 11.616-53.645 0-78.18h73.999c4.143 0 7.5-3.357 7.5-7.5s-3.357-7.5-7.5-7.5h-79.34v-78.19h264.561zm31.057-93.19h-295.622v-16.063h295.623v16.063z"/><path d="m84.979 139.159h194.402v39.098c0 4.143 3.357 7.5 7.5 7.5h77.66c4.143 0 7.5-3.357 7.5-7.5v-48.64c0-4.143-3.357-7.5-7.5-7.5s-7.5 3.357-7.5 7.5v41.14h-62.66v-109.25h62.66v35.43c0 4.143 3.357 7.5 7.5 7.5s7.5-3.357 7.5-7.5v-42.93c0-4.143-3.357-7.5-7.5-7.5h-77.66c-4.143 0-7.5 3.357-7.5 7.5v39.09h-194.402c-12.7 0-23.031 10.332-23.031 23.031s10.331 23.031 23.031 23.031zm116.218-31.062h78.184v16.063h-78.184zm-116.218 0h101.218v16.063h-101.218c-4.428 0-8.031-3.603-8.031-8.031s3.603-8.032 8.031-8.032z"/></g></svg>